Land_normalized_Motion_pl09
version=1
nRows=12
nColumns=43
inDegrees=yes
endheader
time		pelvis_tilt		pelvis_list		pelvis_rotation		pelvis_tx		pelvis_ty		pelvis_tz		hip_flexion_r		hip_adduction_r		hip_rotation_r		knee_angle_r		ankle_angle_r		subtalar_angle_r		mtp_angle_r		hip_flexion_l		hip_adduction_l		hip_rotation_l		knee_angle_l		ankle_angle_l		subtalar_angle_l		mtp_angle_l		lumbar_extension		lumbar_bending		lumbar_rotation		neck_flexion		neck_lateral_bending		neck_rotation		arm_flex_r		arm_add_r		arm_rot_r		elbow_flex_r		pro_sup_r		wrist_flex_r		wrist_dev_r		hand_finger_flex_r		arm_flex_l		arm_add_l		arm_rot_l		elbow_flex_l		pro_sup_l		wrist_flex_l		wrist_dev_l		hand_finger_flex_l		
2.752652		0.319415		-2.313710		93.229574		-0.019462		0.644837		0.483025		62.712039		-7.625557		-9.060592		-90.169104		20.706014		-12.004591		11.294495		63.283326		-4.217730		-4.536451		-89.761445		22.556446		-3.376380		13.197906		-33.167589		2.589263		0.034350		-4.673149		1.874470		-3.730703		-24.544036		-21.399628		-23.466472		68.400158		116.566302		-16.461046		-18.879333		-27.061387		-31.605400		-24.951978		-29.991425		91.221297		126.826032		-36.351789		-21.085413		-8.674995		
2.755758		0.460533		-1.994052		93.070359		-0.018947		0.637029		0.482596		63.748933		-7.115957		-8.646104		-92.160924		20.296611		-12.765528		11.131952		64.492181		-4.149715		-4.063940		-92.038153		21.811271		-4.239734		13.470473		-34.407762		2.654166		0.343965		-3.531628		1.896659		-3.800125		-22.200486		-21.621013		-23.144703		68.382262		116.657833		-17.005876		-19.115185		-27.237709		-28.576157		-25.389524		-29.082305		90.737822		127.292261		-36.909576		-20.967777		-8.681165		
2.758864		0.598982		-1.495156		92.889884		-0.018418		0.629841		0.482038		64.542842		-6.583754		-8.246185		-94.042530		19.811847		-13.521171		11.015740		65.441369		-4.132974		-3.693687		-94.198911		21.019324		-5.264788		13.894528		-35.865024		2.700009		0.673555		-2.325900		1.920460		-3.907505		-19.842580		-21.833555		-22.809233		68.417609		116.580248		-17.616448		-19.357437		-27.371337		-25.532526		-25.830835		-28.120598		90.292690		127.667428		-37.516987		-20.726241		-8.569648		
2.761970		0.715146		-0.867869		92.692059		-0.017865		0.623154		0.481355		65.163191		-6.078797		-7.853395		-95.847547		19.265381		-14.145612		10.955409		66.191336		-4.127552		-3.357372		-96.267890		20.145284		-6.334296		14.421129		-37.488872		2.696499		0.979059		-1.032892		1.983381		-3.968441		-17.466727		-22.032960		-22.439751		68.528981		116.334397		-18.237526		-19.576665		-27.430848		-22.556236		-26.248274		-27.190080		89.964885		127.896668		-38.100775		-20.396843		-8.335680		
2.765076		0.799200		-0.366295		92.601308		-0.017480		0.616477		0.480556		65.873291		-5.681113		-7.436644		-97.617525		18.879187		-14.298380		10.949400		67.045958		-4.013107		-3.022108		-98.254738		19.538877		-6.774786		14.594546		-38.921633		2.703814		1.027072		0.061846		2.040293		-3.837387		-14.963976		-22.250213		-21.966857		68.595499		116.221019		-18.363642		-19.599237		-27.420434		-19.824956		-26.526432		-26.545428		89.799067		127.917758		-38.115208		-20.164172		-8.224531		
2.768182		0.882988		0.561190		92.372986		-0.016823		0.610915		0.479660		66.088208		-5.185819		-7.099518		-99.300744		18.112533		-14.988526		11.007694		67.369178		-4.020935		-2.770286		-100.135498		18.304058		-8.400292		15.128012		-40.941314		2.615898		1.335655		1.582837		2.199613		-3.919568		-12.620633		-22.387097		-21.493646		68.896459		115.519704		-19.357391		-19.838458		-27.594894		-16.972810		-26.953962		-25.562578		89.717113		127.744268		-38.782790		-19.631113		-8.012149		
2.771288		0.959643		1.195750		92.286033		-0.016364		0.605010		0.478766		66.601231		-4.820142		-6.722049		-100.979506		17.484340		-15.132459		11.137154		67.999673		-3.904104		-2.411836		-101.943119		17.361372		-9.088349		15.592509		-42.572647		2.583839		1.359138		2.853975		2.380293		-3.809042		-10.157747		-22.539777		-20.887616		69.133153		114.974762		-19.856263		-19.901682		-27.609470		-14.373244		-27.272977		-24.868866		89.769689		127.487989		-39.046077		-19.184518		-7.717002		
2.774394		1.035344		1.733475		92.243578		-0.015925		0.599195		0.477940		67.192862		-4.494665		-6.357016		-102.617750		16.850576		-15.173069		11.233440		68.704081		-3.738716		-2.011340		-103.645010		16.446219		-9.586951		15.830935		-44.095301		2.563387		1.287047		4.089367		2.591454		-3.652920		-7.636933		-22.667699		-20.216995		69.375375		114.607359		-20.179507		-19.878607		-27.725813		-11.876713		-27.579410		-24.290461		89.910488		127.120330		-39.072959		-18.749836		-7.561475		
2.777500		1.060452		2.301341		92.268694		-0.015460		0.593871		0.477200		67.676446		-4.197761		-5.977375		-104.133700		16.319168		-15.454574		11.479818		69.259072		-3.454796		-1.618133		-105.145233		15.577945		-10.424908		16.364948		-45.678163		2.521578		1.107151		5.327131		2.755472		-3.526651		-5.005262		-22.768620		-19.259160		69.544915		113.827438		-20.828517		-19.770466		-28.099394		-9.393505		-27.973989		-23.589058		90.165983		126.333290		-39.253536		-18.036335		-7.303799		
2.780606		1.118574		2.571688		92.352659		-0.015130		0.588233		0.476541		68.471932		-3.902940		-5.542734		-105.618644		15.790136		-15.279683		11.541842		70.136660		-3.169253		-1.158553		-106.591212		14.931943		-10.361534		16.504197		-46.877818		2.552064		0.878314		6.331980		2.910750		-3.378714		-2.394062		-22.835391		-18.477590		69.706475		113.685004		-20.762763		-19.676457		-28.188074		-6.929821		-28.297508		-23.055384		90.308446		126.011614		-39.040327		-17.698337		-7.202675		
2.783712		1.104907		2.901499		92.504105		-0.014962		0.582867		0.475998		69.208317		-3.716397		-5.077889		-107.093212		15.062648		-15.200302		11.706064		70.910285		-2.753756		-0.731086		-107.932704		14.015043		-10.535812		16.945078		-48.192401		2.570826		0.511760		7.526686		3.218992		-3.183416		0.252554		-22.904044		-17.469907		69.968390		113.155090		-21.064311		-19.504435		-28.729150		-4.617320		-28.804472		-22.376910		90.743032		125.021115		-39.034638		-16.893746		-7.079538		
2.786818		1.071363		3.117109		92.637945		-0.014799		0.577643		0.475523		70.015617		-3.539049		-4.615322		-108.458765		14.491119		-15.035033		11.850676		71.719607		-2.373802		-0.346882		-109.150837		13.325888		-10.468012		17.366445		-49.339372		2.575825		0.154732		8.481402		3.385492		-3.018102		2.931145		-22.981186		-16.457453		70.148166		112.781723		-21.049956		-19.364293		-29.135269		-2.196626		-29.291392		-21.675644		91.002011		124.270444		-38.906748		-16.293035		-6.954542		
